#N canvas 79 241 1422 970 10;
#X obj 26 48 tgl 15 0 empty empty empty 17 7 0 10 -262144 -1 -1 1 1
;
#X msg 26 80 \; pd dsp \$1;
#X obj 263 699 env~;
#X obj 264 773 vu 15 120 empty empty -1 -8 0 10 -66577 -1 1 0;
#X obj 263 738 - 100;
#X msg 310 543 open 1.aif;
#X msg 490 539 open 2.aif;
#X msg 670 533 open 3.aif;
#X msg 893 533 open 4.aif;
#X obj 532 695 dac~;
#X obj 264 598 readsf~;
#X msg 264 556 start;
#X msg 218 551 stop;
#X obj 430 608 readsf~;
#X obj 622 617 readsf~;
#X obj 836 613 readsf~;
#X obj 264 481 bng 15 250 50 0 empty empty empty 17 7 0 10 -262144
-1 -1;
#X obj 264 527 t b b;
#X obj 222 246 random 4;
#X obj 222 211 bng 15 250 50 0 empty empty empty 17 7 0 10 -262144
-1 -1;
#X floatatom 222 268 5 0 0 0 - - -;
#X obj 364 303 unpack f f f f f f f f;
#X floatatom 364 345 5 0 0 0 - - -;
#X floatatom 404 345 5 0 0 0 - - -;
#X floatatom 444 345 5 0 0 0 - - -;
#X floatatom 484 345 5 0 0 0 - - -;
#X floatatom 524 345 5 0 0 0 - - -;
#X floatatom 564 345 5 0 0 0 - - -;
#X floatatom 614 345 5 0 0 0 - - -;
#X floatatom 654 345 5 0 0 0 - - -;
#X obj 364 396 s s1;
#X obj 404 396 s p1;
#X obj 218 526 r s1;
#X obj 264 447 r p1;
#X obj 364 366 sel 1;
#X obj 404 366 sel 1;
#X msg 912 270 1 0 1 0 1 0 1 0;
#X obj 433 519 t b b;
#X obj 433 485 bng 15 250 50 0 empty empty empty 17 7 0 10 -262144
-1 -1;
#X msg 430 547 start;
#X msg 392 549 stop;
#X obj 490 400 s p2;
#X obj 428 704 env~;
#X obj 429 769 vu 15 120 empty empty -1 -8 0 10 -66577 -1 1 0;
#X obj 428 739 - 100;
#X obj 622 705 env~;
#X obj 623 769 vu 15 120 empty empty -1 -8 0 10 -66577 -1 1 0;
#X obj 622 738 - 100;
#X obj 836 711 env~;
#X obj 837 773 vu 15 120 empty empty -1 -8 0 10 -66577 -1 1 0;
#X obj 836 742 - 100;
#X msg 584 544 stop;
#X msg 781 546 stop;
#X msg 622 542 start;
#X msg 836 544 start;
#X obj 622 509 t b b;
#X obj 836 506 t b b;
#X obj 622 469 bng 15 250 50 0 empty empty empty 17 7 0 10 -262144
-1 -1;
#X obj 836 462 bng 15 250 50 0 empty empty empty 17 7 0 10 -262144
-1 -1;
#X obj 392 521 r s2;
#X obj 433 443 r p2;
#X obj 584 517 r s3;
#X obj 622 435 r p3;
#X obj 781 517 r s4;
#X obj 836 426 r p4;
#X obj 445 399 s s2;
#X obj 531 401 s s3;
#X obj 576 402 s p3;
#X obj 621 400 s s4;
#X obj 665 401 s p4;
#X obj 446 368 sel 1;
#X obj 489 368 sel 1;
#X obj 532 370 sel 1;
#X obj 575 370 sel 1;
#X obj 621 369 sel 1;
#X obj 664 369 sel 1;
#X msg 364 228 0 1 1 0 1 0 1 0;
#X msg 503 226 1 0 0 1 1 0 1 0;
#X msg 619 224 1 0 1 0 0 1 0 0;
#X msg 751 226 1 0 1 0 1 0 0 1;
#X obj 364 92 random 4;
#X obj 364 65 bng 15 250 50 0 empty empty empty 17 7 0 10 -262144 -1
-1;
#X floatatom 303 113 5 0 0 0 - - -;
#X obj 364 114 + 1;
#X obj 364 167 sel 1 2 3 4;
#X obj 1222 114 readsf~;
#X msg 1146 64 start;
#X msg 1150 104 stop;
#X msg 1265 69 open latido.aif;
#X obj 1223 179 env~;
#X obj 1289 179 dac~;
#X obj 1225 296 vu 15 120 empty empty -1 -8 0 10 -66577 -1 1 0;
#X obj 1224 227 - 150;
#X obj 522 69 tgl 15 0 empty empty empty 17 7 0 10 -262144 -1 -1 0
1;
#X obj 518 99 metro 37400;
#X connect 0 0 1 0;
#X connect 2 0 4 0;
#X connect 4 0 3 0;
#X connect 5 0 10 0;
#X connect 6 0 13 0;
#X connect 7 0 14 0;
#X connect 8 0 15 0;
#X connect 10 0 9 0;
#X connect 10 0 2 0;
#X connect 10 1 9 1;
#X connect 10 1 16 0;
#X connect 11 0 10 0;
#X connect 12 0 10 0;
#X connect 13 0 9 0;
#X connect 13 0 42 0;
#X connect 13 1 9 1;
#X connect 13 1 38 0;
#X connect 14 0 9 0;
#X connect 14 0 45 0;
#X connect 14 1 9 1;
#X connect 14 1 57 0;
#X connect 15 0 9 0;
#X connect 15 0 48 0;
#X connect 15 1 9 1;
#X connect 15 1 58 0;
#X connect 16 0 17 0;
#X connect 17 0 11 0;
#X connect 17 1 5 0;
#X connect 18 0 20 0;
#X connect 19 0 18 0;
#X connect 21 0 22 0;
#X connect 21 1 23 0;
#X connect 21 2 24 0;
#X connect 21 3 25 0;
#X connect 21 4 26 0;
#X connect 21 5 27 0;
#X connect 21 6 28 0;
#X connect 21 7 29 0;
#X connect 22 0 34 0;
#X connect 23 0 35 0;
#X connect 24 0 70 0;
#X connect 25 0 71 0;
#X connect 26 0 72 0;
#X connect 27 0 73 0;
#X connect 28 0 74 0;
#X connect 29 0 75 0;
#X connect 32 0 12 0;
#X connect 33 0 16 0;
#X connect 34 0 30 0;
#X connect 35 0 31 0;
#X connect 36 0 21 0;
#X connect 37 0 39 0;
#X connect 37 1 6 0;
#X connect 38 0 37 0;
#X connect 39 0 13 0;
#X connect 40 0 13 0;
#X connect 42 0 44 0;
#X connect 44 0 43 0;
#X connect 45 0 47 0;
#X connect 47 0 46 0;
#X connect 48 0 50 0;
#X connect 50 0 49 0;
#X connect 51 0 14 0;
#X connect 52 0 15 0;
#X connect 53 0 14 0;
#X connect 54 0 15 0;
#X connect 55 0 53 0;
#X connect 55 1 7 0;
#X connect 56 0 54 0;
#X connect 56 1 8 0;
#X connect 57 0 55 0;
#X connect 58 0 56 0;
#X connect 59 0 40 0;
#X connect 60 0 38 0;
#X connect 61 0 51 0;
#X connect 62 0 57 0;
#X connect 63 0 52 0;
#X connect 64 0 58 0;
#X connect 70 0 65 0;
#X connect 71 0 41 0;
#X connect 72 0 66 0;
#X connect 73 0 67 0;
#X connect 74 0 68 0;
#X connect 75 0 69 0;
#X connect 76 0 21 0;
#X connect 77 0 21 0;
#X connect 78 0 21 0;
#X connect 79 0 21 0;
#X connect 80 0 83 0;
#X connect 81 0 80 0;
#X connect 81 0 82 0;
#X connect 83 0 84 0;
#X connect 83 0 82 0;
#X connect 84 0 76 0;
#X connect 84 1 77 0;
#X connect 84 2 78 0;
#X connect 84 3 79 0;
#X connect 85 0 89 0;
#X connect 85 0 90 0;
#X connect 86 0 85 0;
#X connect 87 0 85 0;
#X connect 88 0 85 0;
#X connect 89 0 92 0;
#X connect 92 0 91 0;
#X connect 93 0 94 0;
#X connect 94 0 81 0;
